<?xml version="1.0" encoding="UTF-8"?>
<svg xmlns="http://www.w3.org/2000/svg" xmlns:xlink="http://www.w3.org/1999/xlink" width="48px" height="48px" viewBox="0 0 48 48" version="1.1">
<defs>
<filter id="alpha" filterUnits="objectBoundingBox" x="0%" y="0%" width="100%" height="100%">
  <feColorMatrix type="matrix" in="SourceGraphic" values="0 0 0 0 1 0 0 0 0 1 0 0 0 0 1 0 0 0 1 0"/>
</filter>
<mask id="mask0">
  <g filter="url(#alpha)">
<rect x="0" y="0" width="48" height="48" style="fill:rgb(0%,0%,0%);fill-opacity:0.2;stroke:none;"/>
  </g>
</mask>
<clipPath id="clip1">
  <rect x="0" y="0" width="48" height="48"/>
</clipPath>
<g id="surface5" clip-path="url(#clip1)">
<path style=" stroke:none;fill-rule:nonzero;fill:rgb(0%,0%,0%);fill-opacity:1;" d="M 1.5 15 L 1.5 33 C 1.5 33.828125 2.171875 34.5 3 34.5 L 4.5 34.5 L 4.5 13.5 L 3 13.5 C 2.171875 13.5 1.5 14.171875 1.5 15 Z M 1.5 15 "/>
</g>
</defs>
<g id="surface1">
<path style=" stroke:none;fill-rule:nonzero;fill:rgb(22.352941%,25.882354%,25.098041%);fill-opacity:1;" d="M 45.75 21.75 L 36.75 21.75 C 35.507812 21.75 34.5 22.757812 34.5 24 C 34.5 25.242188 35.507812 26.25 36.75 26.25 L 45.75 26.25 C 46.992188 26.25 48 25.242188 48 24 C 48 22.757812 46.992188 21.75 45.75 21.75 Z M 45.75 24.75 L 36.75 24.75 C 36.335938 24.75 36 24.414062 36 24 C 36 23.585938 36.335938 23.25 36.75 23.25 L 45.75 23.25 C 46.164062 23.25 46.5 23.585938 46.5 24 C 46.5 24.414062 46.164062 24.75 45.75 24.75 Z M 45.75 24.75 "/>
<path style=" stroke:none;fill-rule:nonzero;fill:rgb(22.352941%,25.882354%,25.098041%);fill-opacity:1;" d="M 44.484375 33.425781 L 36.027344 30.347656 C 34.859375 29.925781 33.570312 30.527344 33.144531 31.695312 C 32.71875 32.859375 33.320312 34.152344 34.488281 34.578125 L 42.945312 37.65625 C 44.113281 38.082031 45.402344 37.476562 45.828125 36.3125 C 46.253906 35.144531 45.652344 33.851562 44.484375 33.425781 Z M 44.421875 35.800781 C 44.277344 36.1875 43.847656 36.386719 43.460938 36.246094 L 35 33.167969 C 34.613281 33.027344 34.414062 32.597656 34.554688 32.207031 C 34.695312 31.816406 35.125 31.617188 35.515625 31.757812 L 43.972656 34.835938 C 44.359375 34.980469 44.5625 35.410156 44.421875 35.800781 Z M 44.421875 35.800781 "/>
<path style=" stroke:none;fill-rule:nonzero;fill:rgb(22.352941%,25.882354%,25.098041%);fill-opacity:1;" d="M 36.027344 17.648438 L 44.484375 14.570312 C 45.652344 14.144531 46.253906 12.851562 45.828125 11.6875 C 45.402344 10.519531 44.113281 9.917969 42.945312 10.339844 L 34.488281 13.417969 C 33.320312 13.84375 32.71875 15.136719 33.140625 16.304688 C 33.566406 17.472656 34.859375 18.074219 36.027344 17.648438 Z M 35 14.828125 L 43.457031 11.75 C 43.847656 11.609375 44.277344 11.8125 44.417969 12.199219 C 44.558594 12.589844 44.359375 13.019531 43.972656 13.160156 L 35.511719 16.238281 C 35.125 16.382812 34.695312 16.179688 34.550781 15.792969 C 34.410156 15.402344 34.609375 14.972656 35 14.828125 Z M 35 14.828125 "/>
<path style=" stroke:none;fill-rule:nonzero;fill:rgb(22.352941%,25.882354%,25.098041%);fill-opacity:1;" d="M 28.148438 0.230469 C 27.027344 -0.238281 25.738281 0.0234375 24.878906 0.878906 L 14.144531 11.613281 C 14.144531 11.613281 13.828125 12 13.125 12 C 12.21875 12 3 12 3 12 C 1.339844 12 0 13.34375 0 15 L 0 33 C 0 34.660156 1.339844 36 3 36 C 3 36 12.515625 36 13.007812 36 C 13.5 36 13.839844 36.082031 14.261719 36.503906 C 14.683594 36.925781 24.878906 47.121094 24.878906 47.121094 C 25.453125 47.695312 26.222656 48 27 48 C 27.386719 48 27.777344 47.925781 28.148438 47.769531 C 29.269531 47.308594 30 46.210938 30 45 L 30 3 C 30 1.789062 29.269531 0.691406 28.148438 0.230469 Z M 4.5 34.5 L 3 34.5 C 2.171875 34.5 1.5 33.828125 1.5 33 L 1.5 15 C 1.5 14.171875 2.171875 13.5 3 13.5 L 4.5 13.5 Z M 9 34.5 L 6 34.5 L 6 13.5 L 9 13.5 Z M 28.5 45 C 28.5 46.5 26.859375 47.109375 25.5 45.75 C 24.667969 44.917969 15 35.25 15 35.25 C 14.4375 34.6875 13.921875 34.5 13.125 34.5 L 10.5 34.5 L 10.5 13.5 L 13.125 13.5 C 13.921875 13.5 14.25 13.5 15 12.75 C 15 12.75 24.574219 3.175781 25.5 2.25 C 26.835938 0.914062 28.5 1.523438 28.5 3 C 28.5 3.796875 28.5 44.203125 28.5 45 Z M 28.5 45 "/>
<path style=" stroke:none;fill-rule:nonzero;fill:rgb(27.058825%,66.666669%,72.156864%);fill-opacity:1;" d="M 6 13.5 L 9 13.5 L 9 34.5 L 6 34.5 Z M 6 13.5 "/>
<path style=" stroke:none;fill-rule:nonzero;fill:rgb(96.862745%,42.745098%,34.117648%);fill-opacity:1;" d="M 1.5 15 L 1.5 33 C 1.5 33.828125 2.171875 34.5 3 34.5 L 4.5 34.5 L 4.5 13.5 L 3 13.5 C 2.171875 13.5 1.5 14.171875 1.5 15 Z M 1.5 15 "/>
<path style=" stroke:none;fill-rule:nonzero;fill:rgb(96.862745%,42.745098%,34.117648%);fill-opacity:1;" d="M 25.5 2.25 C 24.574219 3.175781 15 12.75 15 12.75 C 14.25 13.5 13.921875 13.5 13.125 13.5 L 10.5 13.5 L 10.5 34.5 L 13.125 34.5 C 13.921875 34.5 14.4375 34.6875 15 35.25 C 15 35.25 24.667969 44.917969 25.5 45.75 C 26.859375 47.109375 28.5 46.5 28.5 45 C 28.5 44.203125 28.5 3.796875 28.5 3 C 28.5 1.523438 26.835938 0.914062 25.5 2.25 Z M 25.5 2.25 "/>
<path style=" stroke:none;fill-rule:nonzero;fill:rgb(70.588237%,80.000001%,72.549021%);fill-opacity:1;" d="M 35.515625 16.238281 L 43.972656 13.160156 C 44.359375 13.019531 44.5625 12.589844 44.417969 12.199219 C 44.277344 11.808594 43.847656 11.609375 43.457031 11.75 L 35 14.828125 C 34.613281 14.972656 34.410156 15.402344 34.554688 15.789062 C 34.695312 16.179688 35.125 16.382812 35.515625 16.238281 Z M 35.515625 16.238281 "/>
<path style=" stroke:none;fill-rule:nonzero;fill:rgb(70.588237%,80.000001%,72.549021%);fill-opacity:1;" d="M 45.75 23.25 L 36.75 23.25 C 36.335938 23.25 36 23.585938 36 24 C 36 24.414062 36.335938 24.75 36.75 24.75 L 45.75 24.75 C 46.164062 24.75 46.5 24.414062 46.5 24 C 46.5 23.585938 46.164062 23.25 45.75 23.25 Z M 45.75 23.25 "/>
<path style=" stroke:none;fill-rule:nonzero;fill:rgb(70.588237%,80.000001%,72.549021%);fill-opacity:1;" d="M 43.972656 34.835938 L 35.515625 31.757812 C 35.125 31.617188 34.695312 31.816406 34.554688 32.207031 C 34.414062 32.597656 34.613281 33.027344 35 33.167969 L 43.460938 36.246094 C 43.847656 36.386719 44.277344 36.1875 44.421875 35.796875 C 44.5625 35.410156 44.359375 34.980469 43.972656 34.835938 Z M 43.972656 34.835938 "/>
<use xlink:href="#surface5" mask="url(#mask0)"/>
</g>
</svg>
